<?xml version="1.0" encoding="UTF-8"?>
<svg width="70px" height="70px" viewBox="0 0 70 70" version="1.1" xmlns="http://www.w3.org/2000/svg" xmlns:xlink="http://www.w3.org/1999/xlink">
    <!-- Generator: Sketch 52.5 (67469) - http://www.bohemiancoding.com/sketch -->
    <title>Combined Shape</title>
    <desc>Created with Sketch.</desc>
    <g id="Homepage" stroke="none" stroke-width="1" fill="none" fill-rule="evenodd">
        <g id="Dagcoin---home-Henry" transform="translate(-921.000000, -5651.000000)" fill="#FFFFFF" fill-rule="nonzero">
            <g id="Last-CTA" transform="translate(210.000000, 5601.000000)">
                <g id="Last-call-to-action-Copy-4" transform="translate(497.000000, 0.000000)">
                    <g id="Coin-or-Wallet">
                        <path d="M249,120 C229.670034,120 214,104.329966 214,85 C214,65.6700338 229.670034,50 249,50 C268.329966,50 284,65.6700338 284,85 C284,104.329966 268.329966,120 249,120 Z M248.784946,98 L249.752688,93.496063 C251.043011,93.2913386 252.11828,92.8818898 253.301075,92.3700787 C255.021505,91.5511811 256.419355,90.3228346 257.494624,88.6850394 C258.462366,87.1496063 259,85.3070866 259,83.3622047 C259,81.8267717 258.677419,80.5984252 257.924731,79.4724409 C257.172043,78.3464567 256.204301,77.4251969 254.913978,76.8110236 C254.483871,76.6062992 253.946237,76.4015748 253.408602,76.2992126 L254.268817,72 L249.860215,72 L249.107527,75.8897638 L242.655914,75.8897638 L239,93.5984252 L245.344086,93.5984252 L244.376344,97.8976378 L248.784946,97.8976378 L248.784946,98 Z M244.591398,89.9133858 L241.903226,89.9133858 L244.698925,89.0944882 L246.526882,80.496063 L244.053763,79.6771654 L246.849462,79.6771654 L249.645161,79.6771654 C250.935484,79.6771654 252.010753,80.0866142 252.763441,80.8031496 C253.516129,81.6220472 253.946237,82.6456693 253.946237,83.8740157 C253.946237,85 253.731183,86.023622 253.193548,86.9448819 C252.655914,87.8661417 252.010753,88.5826772 251.150538,89.0944882 C250.290323,89.6062992 249.322581,89.9133858 248.247312,89.9133858 L244.591398,89.9133858 Z" id="Combined-Shape"></path>
                    </g>
                </g>
            </g>
        </g>
    </g>
</svg>