<?xml version="1.0" encoding="UTF-8"?>
<svg width="201px" height="50px" viewBox="0 0 201 50" version="1.1" xmlns="http://www.w3.org/2000/svg" xmlns:xlink="http://www.w3.org/1999/xlink">
    <!-- Generator: sketchtool 55.2 (78181) - https://sketchapp.com -->
    <title>BF153D56-05FA-477D-AB7E-E5592AC750AB</title>
    <desc>Created with sketchtool.</desc>
    <g id="Giftcard-UI" stroke="none" stroke-width="1" fill="none" fill-rule="evenodd">
        <g id="Dagcoin_UI_shop" transform="translate(-79.000000, -15.000000)" fill-rule="nonzero">
            <g id="Main-logo,-full,-blue-2" transform="translate(79.000000, 15.000000)">
                <g id="Main-logo,-full,-blue">
                    <g id="Group-23">
                        <g id="Group-25">
                            <g id="Group">
                                <rect id="Rectangle-Copy" fill="#007AFF" x="0" y="0" width="50.4748603" height="50" rx="18"></rect>
                                <path d="M25.0787829,34.6153846 L25.7926954,31.2840703 C26.7445786,31.1326469 27.5378147,30.8298001 28.4103743,30.4512417 C29.6795519,29.8455482 30.7107587,28.9370078 31.5039947,27.7256208 C32.2179071,26.5899455 32.6145251,25.2271351 32.6145251,23.788613 C32.6145251,22.6529376 32.3765544,21.7443973 31.8212891,20.9115688 C31.2660239,20.0787402 30.5521115,19.3973349 29.6002283,18.9430648 C29.2829339,18.7916414 28.8863158,18.6402181 28.4896979,18.5645063 L29.1242867,15.3846154 L25.8720189,15.3846154 L25.3167538,18.2616596 L20.5573377,18.2616596 L17.8603352,31.3597819 L22.5404277,31.3597819 L21.8265153,34.5396729 L25.0787829,34.5396729 L25.0787829,34.6153846 Z M20.0020725,28.6341611 L22.0644861,28.0284676 L23.4129873,21.6686857 L21.5885445,21.0629922 L23.6509582,21.0629922 L25.7133718,21.0629922 C26.665255,21.0629922 27.458491,21.3658389 28.0137562,21.8958208 C28.5690215,22.5015143 28.8863158,23.2586312 28.8863158,24.1671714 C28.8863158,25 28.7276686,25.7571169 28.3310507,26.4385221 C27.9344326,27.1199273 27.458491,27.6499092 26.8239022,28.0284676 C26.1893134,28.4070261 25.475401,28.6341611 24.682165,28.6341611 L21.9851625,28.6341611 L20.0020725,28.6341611 Z" id="D-Copy" fill="#FFFFFF"></path>
                            </g>
                            <path d="M69.9904195,21.4024278 C69.6180979,20.7468176 69.0223831,20.1640528 68.2032753,19.7998249 C67.4586319,19.4355969 66.5650598,19.2170602 65.5225591,19.2170602 L61.1291629,19.2170602 L58.969697,29.9253618 L63.8098792,29.9253618 C65.075773,29.9253618 66.2672024,29.6339794 67.2352389,29.1240603 C68.2777396,28.6141412 69.0968474,27.8856853 69.6925622,26.9386927 C70.2882769,25.9917 70.5861343,24.9718618 70.5861343,23.7334867 C70.5861343,22.8593397 70.3627412,22.1308838 69.9904195,21.4024278 Z M67.2337172,25.925253 C66.9347048,26.5109709 66.5609393,26.8770446 66.0376675,27.2431183 C65.5143957,27.5359773 64.991124,27.6824068 64.318346,27.6824068 L62.225259,27.6824068 L63.4960619,21.5323687 L65.1406302,21.5323687 C65.8881613,21.5323687 66.4861862,21.7520128 66.9347048,22.264516 C67.3832234,22.7038045 67.6074827,23.3627371 67.6074827,24.0948845 C67.6822358,24.7538172 67.5327296,25.4127498 67.2337172,25.925253 Z M78.8562242,19.2894136 L75.9529092,19.2894136 L69.4762836,29.9253618 L72.3795986,29.9253618 L73.4218142,28.0312888 L78.1117844,28.0312888 L78.5584483,29.9253618 L81.6106511,29.9253618 L78.8562242,19.2894136 Z M74.6555868,25.9459254 L76.8012982,22.0388423 L77.6151886,25.9459254 L74.6555868,25.9459254 Z M90.3963401,24.4250668 L92.8546216,24.4250668 L92.0351947,28.677146 C91.3647539,29.1170163 90.694314,29.4102632 89.8748862,29.70351 C89.0554593,29.9234452 88.3105254,30.0700686 87.5655916,30.0700686 C86.5226839,30.0700686 85.6287639,29.8501334 84.8093362,29.4102632 C83.9899093,28.9703929 83.3939623,28.3838992 82.947002,27.5774703 C82.5000417,26.8443533 82.2765616,25.9646127 82.2765616,25.0115604 C82.2765616,23.9118848 82.5745351,22.8855208 83.1704822,22.0057803 C83.7664292,21.1260397 84.5858562,20.3929226 85.55427,19.8064288 C86.5226839,19.2932468 87.6400846,19 88.9064724,19 C89.7258993,19 90.4708331,19.1466234 91.2902609,19.4398703 C92.0351947,19.7331172 92.7056347,20.0996757 93.2270886,20.6128577 L91.439247,22.5922739 C91.0667809,22.2257153 90.694314,21.9324685 90.1728601,21.7125333 C89.6514062,21.4925983 89.2044462,21.4192865 88.6829924,21.4192865 C88.0870455,21.4192865 87.4910985,21.5659099 86.9696447,21.8591568 C86.4481908,22.1524037 86.0012308,22.5922739 85.703257,23.1054559 C85.4052839,23.6186379 85.256297,24.2051316 85.256297,24.864937 C85.256297,25.378119 85.4052839,25.891301 85.6287639,26.3311713 C85.8522439,26.7710415 86.2247108,27.1376001 86.5971778,27.3575352 C87.0441377,27.5774703 87.4910985,27.7240938 88.0125516,27.7240938 C88.5340054,27.7240938 89.2044462,27.5774703 89.8748862,27.2109118 L90.3963401,24.4250668 Z M103.054738,19.5122237 C103.799849,19.8054705 104.395938,20.3186525 104.917516,20.8318345 L103.054738,22.8112508 C102.756694,22.3713804 102.384138,22.0048219 101.937072,21.7848868 C101.490005,21.4916399 101.042938,21.4183282 100.52136,21.4183282 C99.9252719,21.4183282 99.4036942,21.5649516 98.8821165,21.8581985 C98.3605388,22.1514453 97.9879834,22.5913156 97.6899388,23.1044976 C97.3918942,23.6176796 97.2428718,24.2041733 97.2428718,24.7906669 C97.2428718,25.3038489 97.3918942,25.8170309 97.6154281,26.2569012 C97.8389611,26.6967715 98.1370058,26.9900183 98.5840719,27.2832652 C98.9566273,27.5032003 99.478205,27.6498238 99.9252719,27.6498238 C100.372339,27.6498238 100.819405,27.5032003 101.340983,27.2832652 C101.86256,27.06333 102.309627,26.7700832 102.756694,26.4035247 L104.246916,28.1630058 C103.576316,28.7494994 102.831205,29.2626814 102.011583,29.62924 C101.19196,29.9957985 100.372339,30.1424219 99.5527166,30.1424219 C98.5840719,30.1424219 97.6899388,29.9224868 96.8703165,29.4826165 C96.050695,29.0427463 95.4546057,28.4562526 95.0075387,27.6498238 C94.5604726,26.9167066 94.3369395,26.0369661 94.3369395,25.0839138 C94.3369395,23.9842381 94.6349833,22.9578742 95.156561,22.0048219 C95.7526503,21.1250813 96.4977611,20.3919643 97.4664057,19.8787823 C98.4350496,19.3656003 99.5527166,19.0723534 100.670383,19.0723534 C101.564516,19.0723534 102.309627,19.2189768 103.054738,19.5122237 Z M116.440773,21.4916399 C115.991681,20.7585228 115.318043,20.0987173 114.569557,19.7321588 C113.746221,19.2922885 112.848038,19.0723534 111.800157,19.0723534 C110.602579,19.0723534 109.554697,19.3656003 108.506817,19.8787823 C107.533784,20.3919643 106.710449,21.1250813 106.11166,22.0048219 C105.512871,22.8845624 105.213476,23.9109264 105.213476,25.0839138 C105.213476,26.0369661 105.438022,26.9167066 105.887114,27.6498238 C106.336206,28.3829408 106.934995,29.0427463 107.75833,29.4826165 C108.581665,29.9224868 109.479849,30.1424219 110.52773,30.1424219 C111.725308,30.1424219 112.773189,29.8491751 113.821071,29.3359931 C114.794103,28.8228112 115.617438,28.089694 116.216227,27.1366418 C116.815016,26.1835895 117.114411,25.2305373 117.114411,24.0575498 C117.18926,23.1044976 116.889865,22.224757 116.440773,21.4916399 Z M113.789927,25.9989284 C113.490313,26.5112914 113.115796,26.9504597 112.591471,27.2432385 C112.067147,27.5360173 111.542822,27.6824068 110.943594,27.6824068 C110.41927,27.6824068 109.969848,27.5360173 109.595331,27.3164332 C109.14591,27.0968491 108.846296,26.7308755 108.621585,26.2917073 C108.396875,25.852539 108.247068,25.3401761 108.247068,24.8278131 C108.247068,24.2422554 108.396875,23.6566978 108.696489,23.0711402 C108.996103,22.5587772 109.445524,22.1196089 109.969848,21.8268301 C110.494173,21.5340513 111.018497,21.3876618 111.617725,21.3876618 C112.14205,21.3876618 112.516568,21.5340513 112.965988,21.7536354 C113.340506,21.9732195 113.715024,22.3391931 113.939734,22.7783613 C114.164445,23.2175296 114.314252,23.7298925 114.314252,24.2422554 C114.239348,24.9010078 114.089541,25.4865655 113.789927,25.9989284 Z M122.527147,19.2894136 L120.34941,29.9253618 L117.495824,29.9253618 L119.67356,19.2894136 L122.527147,19.2894136 Z M131.982082,19.2894136 L134.587524,19.2894136 L132.42873,29.9253618 L129.97217,29.9253618 L126.398992,23.5875023 L125.05905,29.9253618 L122.379167,29.9253618 L124.537962,19.2894136 L126.994521,19.2894136 L130.642141,25.7001221 L131.982082,19.2894136 Z" id="text" fill="#1B1F3B"></path>
                            <g id="Group-45" transform="translate(142.000000, 19.000000)" fill="#007AFF">
                                <g id="Group-13">
                                    <g id="Group-34">
                                        <path d="M5.52071429,3.82909091 L7.08,3.82909091 L6.46892857,6.97090909 C6.09666481,7.2690924 5.66470484,7.49818102 5.17303571,7.65818182 C4.68136659,7.81818262 4.17214549,7.89818182 3.64535714,7.89818182 C2.90785346,7.89818182 2.26518131,7.76000138 1.71732143,7.48363636 C1.16946155,7.20727135 0.746281254,6.81818433 0.447767857,6.31636364 C0.14925446,5.81454295 5.08038056e-13,5.23636691 5.08038056e-13,4.58181818 C5.08038056e-13,3.71635931 0.19315283,2.93454895 0.579464286,2.23636364 C0.965775741,1.53817833 1.51011554,0.990911073 2.2125,0.594545455 C2.91488446,0.198179836 3.72261448,2.91322522e-13 4.63571429,2.91322522e-13 C5.33809875,2.91322522e-13 5.94740813,0.112726145 6.46366071,0.338181818 C6.9799133,0.563637491 7.39606985,0.894543273 7.71214286,1.33090909 L6.49,2.35636364 C6.24416544,2.05818033 5.96672774,1.84181885 5.65767857,1.70727273 C5.34862941,1.5727266 4.98339496,1.50545455 4.56196429,1.50545455 C4.00005671,1.50545455 3.50488309,1.63454416 3.07642857,1.89272727 C2.64797405,2.15091038 2.31610237,2.50545229 2.08080357,2.95636364 C1.84550478,3.40727498 1.72785714,3.91272447 1.72785714,4.47272727 C1.72785714,5.06182113 1.9122303,5.52908918 2.28098214,5.87454545 C2.64973399,6.22000173 3.17827037,6.39272727 3.86660714,6.39272727 C4.30208551,6.39272727 4.70946239,6.30181909 5.08875,6.12 L5.52071429,3.82909091 Z M9.36625,0.130909091 L11.0835714,0.130909091 L9.60857143,7.76727273 L7.89125,7.76727273 L9.36625,0.130909091 Z M14.2548214,1.54909091 L13.865,3.56727273 L17.2891071,3.56727273 L17.0046429,4.98545455 L13.6016071,4.98545455 L13.0642857,7.76727273 L11.3469643,7.76727273 L12.8219643,0.130909091 L18.3953571,0.130909091 L18.1108929,1.54909091 L14.2548214,1.54909091 Z M21.201369,1.57090909 L18.841369,1.57090909 L19.1258333,0.130909091 L25.552619,0.130909091 L25.2681548,1.57090909 L22.9186905,1.57090909 L21.717619,7.76727273 L20.0108333,7.76727273 L21.201369,1.57090909 Z" id="GIFT"></path>
                                        <path d="M30.6027381,7.89818182 C29.8652344,7.89818182 29.2208063,7.76000138 28.6694345,7.48363636 C28.1180627,7.20727135 27.6948824,6.81818433 27.399881,6.31636364 C27.1048795,5.81454295 26.957381,5.23636691 26.957381,4.58181818 C26.957381,3.71635931 27.1487778,2.93636711 27.5315774,2.24181818 C27.9143769,1.54726925 28.4534489,1 29.1488095,0.6 C29.8441701,0.199998 30.6413646,2.91322522e-13 31.5404167,2.91322522e-13 C32.2006581,2.91322522e-13 32.7836284,0.116362473 33.2893452,0.349090909 C33.7950621,0.581819345 34.1778558,0.916361455 34.4377381,1.35272727 L33.2050595,2.4 C32.8117242,1.80363338 32.2182183,1.50545455 31.4245238,1.50545455 C30.8836878,1.50545455 30.4060735,1.63636233 29.9916667,1.89818182 C29.5772598,2.16000131 29.2559238,2.51636138 29.0276488,2.96727273 C28.7993739,3.41818407 28.6852381,3.91999724 28.6852381,4.47272727 C28.6852381,5.06182113 28.8660994,5.52908918 29.2278274,5.87454545 C29.5895554,6.22000173 30.0970205,6.39272727 30.7502381,6.39272727 C31.5298849,6.39272727 32.1830926,6.09818476 32.709881,5.50909091 L33.7213095,6.57818182 C32.9908297,7.45818622 31.9513163,7.89818182 30.6027381,7.89818182 Z M39.6950595,6.13090909 L36.2604167,6.13090909 L35.3016667,7.76727273 L33.4789881,7.76727273 L38.2516667,0.130909091 L39.937381,0.130909091 L41.7495238,7.76727273 L40.0427381,7.76727273 L39.6950595,6.13090909 Z M39.4105952,4.78909091 L38.7889881,1.84363636 L37.0505952,4.78909091 L39.4105952,4.78909091 Z M49.8830952,2.49818182 C49.8830952,3.21091265 49.6969661,3.82181564 49.3247024,4.33090909 C48.9524386,4.84000255 48.4361938,5.19999895 47.7759524,5.41090909 L49.0613095,7.76727273 L47.2597024,7.76727273 L46.1007738,5.62909091 L44.6468452,5.62909091 L44.2359524,7.76727273 L42.518631,7.76727273 L43.993631,0.130909091 L46.9963095,0.130909091 C47.9094093,0.130909091 48.618807,0.338179745 49.1245238,0.752727273 C49.6302406,1.1672748 49.8830952,1.74908716 49.8830952,2.49818182 Z M46.3641667,4.22181818 C46.9330981,4.22181818 47.3738377,4.08727407 47.6863988,3.81818182 C47.9989599,3.54908956 48.1552381,3.16363887 48.1552381,2.66181818 C48.1552381,2.29818182 48.0358345,2.02545545 47.7970238,1.84363636 C47.5582131,1.66181727 47.2175617,1.57090909 46.7750595,1.57090909 L45.4264881,1.57090909 L44.9102381,4.22181818 L46.3641667,4.22181818 Z M51.737381,0.130909091 L54.8243452,0.130909091 C55.5758966,0.130909091 56.2238366,0.259998709 56.7681845,0.518181818 C57.3125325,0.776364927 57.730445,1.14545215 58.0219345,1.62545455 C58.3134241,2.10545695 58.4591667,2.66908767 58.4591667,3.31636364 C58.4591667,4.2036408 58.2660138,4.983633 57.8797024,5.65636364 C57.4933909,6.32909427 56.9543189,6.84908907 56.2624702,7.21636364 C55.5706215,7.5836382 54.7716712,7.76727273 53.8655952,7.76727273 L50.262381,7.76727273 L51.737381,0.130909091 Z M53.9182738,6.31636364 C54.4942291,6.31636364 54.9946705,6.19091035 55.4196131,5.94 C55.8445557,5.68908965 56.1694036,5.34363856 56.3941667,4.90363636 C56.6189297,4.46363416 56.7313095,3.96727549 56.7313095,3.41454545 C56.7313095,2.83999713 56.5522042,2.39091071 56.1939881,2.06727273 C55.835772,1.74363475 55.3160153,1.58181818 54.6347024,1.58181818 L53.1702381,1.58181818 L52.253631,6.31636364 L53.9182738,6.31636364 Z" id="CARD"></path>
                                    </g>
                                </g>
                            </g>
                        </g>
                    </g>
                </g>
            </g>
        </g>
    </g>
</svg>